{
	"asset":{
		"generator":"Khronos glTF Blender I/O v4.5.48",
		"version":"2.0"
	},
	"scene":0,
	"scenes":[
		{
			"name":"Scene",
			"nodes":[
				0
			]
		}
	],
	"nodes":[
		{
			"mesh":0,
			"name":"Cylinder.002"
		}
	],
	"materials":[
		{
			"doubleSided":true,
			"name":"Orange plastic",
			"pbrMetallicRoughness":{
				"baseColorFactor":[
					1,
					0.2509642243385315,
					0.05851185321807861,
					1
				],
				"metallicFactor":0,
				"roughnessFactor":0.5
			}
		},
		{
			"doubleSided":true,
			"name":"Black rubber",
			"pbrMetallicRoughness":{
				"baseColorFactor":[
					0.23332682251930237,
					0.23332682251930237,
					0.23332682251930237,
					1
				],
				"metallicFactor":0,
				"roughnessFactor":0.5
			}
		},
		{
			"doubleSided":true,
			"name":"Metal grid",
			"pbrMetallicRoughness":{
				"baseColorFactor":[
					0.800000011920929,
					0.800000011920929,
					0.800000011920929,
					1
				],
				"metallicFactor":0,
				"roughnessFactor":0.5
			}
		}
	],
	"meshes":[
		{
			"name":"Cylinder.002",
			"primitives":[
				{
					"attributes":{
						"POSITION":0,
						"NORMAL":1,
						"TEXCOORD_0":2
					},
					"indices":3,
					"material":0
				},
				{
					"attributes":{
						"POSITION":4,
						"NORMAL":5,
						"TEXCOORD_0":6
					},
					"indices":7,
					"material":1
				},
				{
					"attributes":{
						"POSITION":8,
						"NORMAL":9,
						"TEXCOORD_0":10
					},
					"indices":11,
					"material":2
				}
			]
		}
	],
	"accessors":[
		{
			"bufferView":0,
			"componentType":5126,
			"count":90,
			"max":[
				0.3071776330471039,
				0.3071776032447815,
				0.1494172215461731
			],
			"min":[
				-0.30717769265174866,
				-0.30717769265174866,
				-0.5073879957199097
			],
			"type":"VEC3"
		},
		{
			"bufferView":1,
			"componentType":5126,
			"count":90,
			"type":"VEC3"
		},
		{
			"bufferView":2,
			"componentType":5126,
			"count":90,
			"type":"VEC2"
		},
		{
			"bufferView":3,
			"componentType":5123,
			"count":168,
			"type":"SCALAR"
		},
		{
			"bufferView":4,
			"componentType":5126,
			"count":54,
			"max":[
				0.3071776330471039,
				0.3071776032447815,
				0.356689453125
			],
			"min":[
				-0.30717769265174866,
				-0.30717769265174866,
				-0.5073879957199097
			],
			"type":"VEC3"
		},
		{
			"bufferView":5,
			"componentType":5126,
			"count":54,
			"type":"VEC3"
		},
		{
			"bufferView":6,
			"componentType":5126,
			"count":54,
			"type":"VEC2"
		},
		{
			"bufferView":7,
			"componentType":5123,
			"count":126,
			"type":"SCALAR"
		},
		{
			"bufferView":8,
			"componentType":5126,
			"count":37,
			"max":[
				0.27282872796058655,
				0.2728288173675537,
				0.5972583293914795
			],
			"min":[
				-0.27282875776290894,
				-0.27282875776290894,
				0.356689453125
			],
			"type":"VEC3"
		},
		{
			"bufferView":9,
			"componentType":5126,
			"count":37,
			"type":"VEC3"
		},
		{
			"bufferView":10,
			"componentType":5126,
			"count":37,
			"type":"VEC2"
		},
		{
			"bufferView":11,
			"componentType":5123,
			"count":180,
			"type":"SCALAR"
		}
	],
	"bufferViews":[
		{
			"buffer":0,
			"byteLength":1080,
			"byteOffset":0,
			"target":34962
		},
		{
			"buffer":0,
			"byteLength":1080,
			"byteOffset":1080,
			"target":34962
		},
		{
			"buffer":0,
			"byteLength":720,
			"byteOffset":2160,
			"target":34962
		},
		{
			"buffer":0,
			"byteLength":336,
			"byteOffset":2880,
			"target":34963
		},
		{
			"buffer":0,
			"byteLength":648,
			"byteOffset":3216,
			"target":34962
		},
		{
			"buffer":0,
			"byteLength":648,
			"byteOffset":3864,
			"target":34962
		},
		{
			"buffer":0,
			"byteLength":432,
			"byteOffset":4512,
			"target":34962
		},
		{
			"buffer":0,
			"byteLength":252,
			"byteOffset":4944,
			"target":34963
		},
		{
			"buffer":0,
			"byteLength":444,
			"byteOffset":5196,
			"target":34962
		},
		{
			"buffer":0,
			"byteLength":444,
			"byteOffset":5640,
			"target":34962
		},
		{
			"buffer":0,
			"byteLength":296,
			"byteOffset":6084,
			"target":34962
		},
		{
			"buffer":0,
			"byteLength":360,
			"byteOffset":6380,
			"target":34963
		}
	],
	"buffers":[
		{
			"byteLength":6740,
			"uri":"rocket.bin"
		}
	]
}
